<?xml version="1.0" encoding="utf-8"?>
<!-- Generator: Adobe Illustrator 18.1.0, SVG Export Plug-In . SVG Version: 6.00 Build 0)  -->
<!DOCTYPE svg PUBLIC "-//W3C//DTD SVG 1.1//EN" "http://www.w3.org/Graphics/SVG/1.1/DTD/svg11.dtd">
<svg version="1.1" id="Layer_2" xmlns="http://www.w3.org/2000/svg" xmlns:xlink="http://www.w3.org/1999/xlink" x="0px" y="0px"
	 viewBox="-82 -288 664 1072" enable-background="new -82 -288 664 1072" xml:space="preserve">
<g id="robotFlick">

		<rect x="77" y="368.6" transform="matrix(0.7071 -0.7071 0.7071 0.7071 -253.1932 194.039)" fill="#3A7385" width="61.4" height="68.1"/>

		<rect x="58" y="353.4" transform="matrix(0.7071 -0.7071 0.7071 0.7071 -241.4694 165.2365)" fill="#3A7385" width="41.4" height="41.4"/>

		<rect x="53.6" y="349" transform="matrix(0.7071 -0.7071 0.7071 0.7071 -234.8462 149.2467)" fill="#3A7385" width="18.2" height="18.2"/>

		<rect x="134.7" y="410.5" transform="matrix(0.7071 -0.7071 0.7071 0.7071 -267.0724 227.4664)" fill="#3A7385" width="12.7" height="51.1"/>
</g>
<g id="robotPull">
	<path fill="#F0C377" d="M553.1,549.5H532c-5.6,0-10.1,4.5-10.1,10.1v10.8c0,4.1-3.3,7.3-7.3,7.3h-36.2v28.3h36.2
		c4.1,0,7.3,3.3,7.3,7.3v10.3c0,5.6,4.5,10.1,10.1,10.1h21.1c5.6,0,10.1-4.5,10.1-10.1v-64.1C563.2,554,558.7,549.5,553.1,549.5z"/>
	<rect x="439.5" y="585.6" fill="#F0C377" width="61.6" height="12.7"/>
</g>
<g id="robotSpin">
	<path fill="#D85261" d="M19.6-24.1L19.6-24.1c1,7.8,11.2,9.9,15.3,3.2l0,0c5-8.3,17.8-2.6,15,6.7l0,0C47.5-6.7,56-0.5,62.4-5l0,0
		c8-5.5,17.3,4.8,11,12.2l0,0c-5.1,5.9,0.1,15,7.8,13.5l0,0c9.5-1.8,13.8,11.4,5.1,15.6l0,0c-7.1,3.3-6,13.7,1.6,15.5l0,0
		c9.4,2.2,8,16.1-1.7,16.3l0,0c-7.8,0.2-11,10.1-4.8,14.8l0,0c7.7,5.9,0.8,17.9-8.2,14.2l0,0c-7.2-3-14.2,4.7-10.4,11.6l0,0
		c4.7,8.5-6.6,16.7-13.3,9.6l0,0c-5.4-5.7-14.9-1.5-14.2,6.3l0,0c0.8,9.7-12.8,12.6-16,3.4l0,0c-2.6-7.4-13-7.4-15.6,0l0,0
		c-3.2,9.2-16.8,6.3-16-3.4l0,0c0.7-7.8-8.9-12-14.2-6.3l0,0c-6.6,7.1-17.9-1.1-13.3-9.6l0,0c3.8-6.9-3.2-14.6-10.4-11.6l0,0
		c-8.9,3.8-15.9-8.3-8.2-14.2l0,0c6.2-4.7,3-14.7-4.8-14.8l0,0c-9.7-0.2-11.2-14.1-1.7-16.3l0,0c7.6-1.8,8.7-12.2,1.6-15.5l0,0
		c-8.8-4.1-4.5-17.4,5.1-15.6l0,0c7.7,1.5,12.9-7.6,7.8-13.5l0,0c-6.3-7.3,3-17.7,11-12.2l0,0c6.4,4.5,14.9-1.7,12.6-9.2l0,0
		c-2.8-9.3,9.9-15,15-6.7l0,0c4.1,6.7,14.3,4.5,15.3-3.2l0,0C4.4-33.7,18.3-33.7,19.6-24.1z"/>
</g>
<g id="robotBody">
	<line fill="none" stroke="#DD00B3" stroke-miterlimit="10" x1="482.6" y1="377.3" x2="482.6" y2="377.2"/>
	<line fill="none" stroke="#DD00B3" stroke-miterlimit="10" x1="532.4" y1="327.4" x2="532.3" y2="327.6"/>
	<line fill="none" stroke="#DD00B3" stroke-miterlimit="10" x1="379.3" y1="480.6" x2="378.9" y2="480.9"/>
	<line fill="none" stroke="#DD00B3" stroke-miterlimit="10" x1="298.5" y1="400.9" x2="298.5" y2="400.6"/>
	<line fill="none" stroke="#DD00B3" stroke-miterlimit="10" x1="298.5" y1="318.1" x2="298.4" y2="318.1"/>
	<polygon fill="#3A7385" points="470.2,616.7 470.2,759.4 135.8,759.4 278.2,617 278.4,616.7 	"/>
	<line fill="none" stroke="#DD00B3" stroke-miterlimit="10" x1="8" y1="27.5" x2="7.4" y2="26.9"/>
	<line fill="none" stroke="#24425A" stroke-miterlimit="10" x1="379.6" y1="709" x2="379.6" y2="616.7"/>
	<path fill="#CC4133" d="M379.7,658.1v20.6c-5.7,0-10.3-4.6-10.3-10.3C369.4,662.6,374,658.1,379.7,658.1z"/>
	<path fill="#F0C377" d="M389.9,668.3c0,5.7-4.6,10.3-10.3,10.3v-20.6C385.3,658.1,389.9,662.7,389.9,668.3z"/>
	<path fill="#F0C377" d="M278.2,658v20.8c-5.8,0-10.4-4.6-10.4-10.4C267.8,662.6,272.5,658,278.2,658z"/>
	<path fill="#D85261" d="M288.6,668.3c0,5.8-4.6,10.4-10.4,10.4v-20.8C284,658,288.6,662.6,288.6,668.3z"/>
	<path fill="#F0C377" d="M357.2,708.6h-56.5c0-15.6,12.7-28.2,28.3-28.2C344.6,680.4,357.2,693,357.2,708.6z"/>
	<path fill="#24425A" d="M357.2,708.6c0,15.6-12.6,28.2-28.2,28.2s-28.3-12.6-28.3-28.2H357.2z"/>
	<line fill="none" stroke="#DD00B3" stroke-miterlimit="10" x1="278.2" y1="380.5" x2="278.2" y2="380.4"/>
	<line fill="none" stroke="#24425A" stroke-miterlimit="10" x1="278.2" y1="708.8" x2="278.2" y2="617.2"/>
	<line fill="none" stroke="#24425A" stroke-miterlimit="10" x1="379.6" y1="708.8" x2="345.5" y2="708.8"/>
	<line fill="none" stroke="#24425A" stroke-miterlimit="10" x1="345.5" y1="708.8" x2="278.2" y2="708.8"/>
	<polygon fill="#3A7385" points="160.4,179.9 160.4,288 36,288 -13.2,238.8 -13.6,238.4 -13.6,31.8 -9.3,27.5 8,27.5 89.6,109.2
		103,122.6 	"/>
	<path fill="#749AA0" d="M298.5,27.5v74.4c-58.6,0-109.8,31.2-138.1,78L103,122.6L78.9,98.5l-71-71H298.5z"/>
	<polygon fill="#749AA0" points="226.1,245.7 226.1,328.9 184.9,288 160.4,288 160.4,179.9 	"/>
	<path fill="#CC4133" d="M298.5,188.8v211.8l-20.3-20.1l-52.1-51.6v-83.2C234,213,263.4,188.8,298.5,188.8z"/>
	<path fill="#3A7385" d="M482.6,27.5v349.7l-12.4,12.4l-50.1,50.1l0,0L315.9,335.6l65.8,65.7c46.7-28.3,78-79.6,78-138.1
		c0-89.1-72.2-161.3-161.2-161.3l0,0V27.5H482.6z"/>
	<polygon fill="#24425A" points="532.3,77.6 532.3,327.6 482.6,377.2 482.6,27.5 	"/>
	<polygon fill="#749AA0" points="532.3,327.6 532.3,374.9 470.2,436.8 470.2,389.7 482.6,377.2 	"/>
	<polygon fill="#CC4133" points="470.2,389.7 470.2,616.7 379.7,616.7 379.7,481 379.3,480.6 420.1,439.7 420.1,439.7 	"/>
	<polygon fill="#F0C377" points="379.7,616.7 278.4,616.7 278.2,616.5 278.2,380.5 298.5,400.6 379.3,480.6 379.7,481 	"/>
	<path fill="#F0C377" d="M372.9,263.2c0,35.1-24.3,64.5-57,72.4l-17.4-17.3V188.8l0,0C339.6,188.8,372.9,222,372.9,263.2z"/>
	<polygon fill="#749AA0" points="420.1,439.7 379.3,480.6 298.5,400.6 298.5,318.1 315.9,335.6 	"/>
	<polygon fill="#F0C377" points="278.2,616.5 116.9,455.2 184.9,387.2 184.9,288 226.1,328.9 278.2,380.5 	"/>
	<polygon fill="#24425A" points="278.2,616.5 278.2,617 135.8,759.4 -9.4,759.4 -13.6,755.2 -13.6,536.1 36,486.5 85.6,486.5
		116.9,455.2 	"/>
	<polygon fill="none" stroke="#DD00B3" stroke-miterlimit="10" points="278.4,616.7 278.2,617 278.2,616.5 	"/>
	<path fill="#3A7385" d="M278.2,424.5v86.8c-24,0-43.4-19.4-43.4-43.4C234.8,443.9,254.2,424.5,278.2,424.5z"/>
	<path fill="#749AA0" d="M321.6,467.9c0,24-19.4,43.4-43.4,43.4v-86.8C302.2,424.5,321.6,443.9,321.6,467.9z"/>
	<path fill="#749AA0" d="M379.7,504v86.7c-0.7,0-1.5,0.1-2.2,0.1c-24,0-43.4-19.4-43.4-43.4c0-24,19.4-43.4,43.4-43.4
		C378.2,504,378.9,504,379.7,504z"/>
	<path fill="#3A7385" d="M420.8,547.4c0,23.2-18.2,42.2-41.2,43.3V504C402.6,505.2,420.8,524.2,420.8,547.4z"/>
	<path fill="#211E30" d="M298.5,102L298.5,102c-58.6,0-109.8,31.2-138.1,78l65.8,65.7c7.9-32.6,37.3-56.9,72.4-56.9l0,0
		c41.1,0,74.4,33.3,74.4,74.4c0,35.1-24.3,64.5-57,72.4l65.8,65.7c46.7-28.3,78-79.6,78-138.1C459.8,174.1,387.6,102,298.5,102z"/>
	<polygon fill="#CC4133" points="323.3,213.6 348.1,238.3 348.1,269.4 298.5,319 298.5,238.3 317.1,219.8 	"/>
	<polygon fill="#F0C377" points="273.6,213.6 298.5,226 298.5,319 298.5,319 248.9,269.4 248.9,238.3 	"/>
	<polygon fill="#749AA0" points="175.5,548.5 83.7,548.5 96.1,536.1 163.1,536.1 	"/>
	<polygon fill="#749AA0" points="200.4,573.3 58.9,573.3 71.3,560.9 187.9,560.9 	"/>
	<rect x="48.7" y="585.7" fill="#749AA0" width="161.8" height="12.4"/>
	<rect x="48.7" y="610.6" fill="#749AA0" width="161.8" height="12.4"/>
	<rect x="48.7" y="635.3" fill="#749AA0" width="161.8" height="12.4"/>
	<polygon fill="#749AA0" points="200.9,660.1 188.5,672.5 70.7,672.5 58.3,660.1 	"/>
	<polygon fill="#749AA0" points="176,685 163.7,697.4 95.6,697.4 83.2,685 	"/>
	<line fill="none" stroke="#24425A" stroke-miterlimit="10" x1="379.6" y1="708.8" x2="415.2" y2="708.8"/>
	<line fill="none" stroke="#24425A" stroke-miterlimit="10" x1="415.2" y1="708.8" x2="415.2" y2="759.4"/>
	<line fill="none" stroke="#24425A" stroke-miterlimit="10" x1="278.4" y1="689.8" x2="205.4" y2="689.8"/>
	<line fill="none" stroke="#24425A" stroke-miterlimit="10" x1="389.9" y1="668.3" x2="470.2" y2="668.3"/>
	<polygon fill="#F0C377" points="171.4,27.5 89.6,109.2 76.3,122.6 -13.6,212.5 -13.6,164.2 52.2,98.5 65.6,85.1 123.2,27.5 	"/>
	<polygon fill="#F0C377" points="532.3,166.4 488.5,122.6 482.6,116.7 393.4,27.5 345,27.5 482.6,165.1 532.3,214.6 	"/>
	<line fill="none" stroke="#211E30" stroke-miterlimit="10" x1="278.2" y1="380.5" x2="278.2" y2="616.5"/>
	<defs>
		<filter id="Adobe_OpacityMaskFilter" filterUnits="userSpaceOnUse" x="0.5" y="-36.5" width="596.9" height="597.8">
			<feColorMatrix  type="matrix" values="1 0 0 0 0  0 1 0 0 0  0 0 1 0 0  0 0 0 1 0"/>
		</filter>
	</defs>
	<mask maskUnits="userSpaceOnUse" x="0.5" y="-36.5" width="596.9" height="597.8" id="SVGID_1_">
		<g filter="url(#Adobe_OpacityMaskFilter)">
			<path fill="#FFFFFF" d="M298.5,102L298.5,102c-58.6,0-109.8,31.2-138.1,78l65.8,65.7c7.9-32.6,37.3-56.9,72.4-56.9l0,0
				c41.1,0,74.4,33.3,74.4,74.4c0,35.1-24.3,64.5-57,72.4l65.8,65.7c46.7-28.3,78-79.6,78-138.1C459.8,174.1,387.6,102,298.5,102z"
				/>
		</g>
	</mask>
	<g mask="url(#SVGID_1_)">
		<g opacity="0.9">
			<g enable-background="new    ">

					<image overflow="visible" width="683" height="684" xlink:href="7CA5ED2E38BB9AF1.png"  transform="matrix(0.874 0 0 0.874 0.5336 -36.4674)">
				</image>
			</g>
		</g>
		<g>
			<circle fill="#211E30" cx="298.4" cy="262.1" r="74.5"/>
		</g>
	</g>
</g>
<g id="robotHead">
	<g id="Filling_11_">
		<polyline fill="#D85261" points="258.2,-98.7 258.2,-217.8 179.4,-217.8 229.2,-127.8 258.2,-98.7 		"/>
		<polyline fill="#CC4133" points="258.2,-98.7 258.2,-217.8 343.4,-218.7 287.4,-127.8 258.2,-98.7 		"/>
		<rect x="258.2" y="-258.6" fill="#749AA0" width="129.4" height="41"/>
		<rect x="128.9" y="-258.6" fill="#3A7385" width="129.4" height="41"/>
		<polygon fill="#749AA0" points="258.2,-62.3 202,-118.5 98.2,-16.2 156.4,42 258.2,42 		"/>
		<polygon fill="#3A7385" points="258.2,-62.3 314.4,-118.5 418.2,-16.2 360,42 258.2,42 		"/>
		<polygon fill="#CC4133" points="258.2,-62.3 189.2,-131.4 207.3,-149.6 258.2,-98.7 		"/>
		<polyline fill="#D85261" points="258.2,-62.3 316.4,-120.4 287.4,-127.8 258.2,-98.7 258.2,-62.3 		"/>
		<polygon fill="#3A7385" points="334,15.3 334,17.7 181.3,17.7 181.3,16.4 222.3,-25.5 243.9,-47.6 258.2,-33.2 272.6,-47.6 		"/>
		<polygon fill="#F0C377" points="190.5,-132.7 98.2,-40.4 98.2,-16.2 202,-118.5 		"/>
		<polygon fill="#F0C377" points="328.2,-130.5 418.2,-40.4 418.2,-16.2 314.4,-118.5 		"/>
		<polygon fill="#CC4133" points="128.9,-258.6 232.5,-174.8 166.1,-108.4 98.2,-40.4 98.2,-253.4 103.8,-258.6 		"/>
		<polygon fill="#D85261" points="387.7,-258.6 283.2,-174.1 350.4,-108.4 418.3,-40.4 418.3,-253.4 412.7,-258.6 		"/>
		<polyline fill="#749AA0" points="334,15.3 334,17.7 258.2,17.7 258.2,-33.2 272.6,-47.6 		"/>
		<polygon fill="#749AA0" points="360.1,42 258.2,42 258.2,17.7 334,17.7 334,15.3 		"/>
		<polygon fill="#3A7385" points="258.2,17.7 258.2,42 156.4,42 181.3,16.4 181.3,17.7 		"/>
	</g>
	<g id="Eyes_19_">
		<g>
			<path fill="#FFFFFF" d="M183.4-62.9c35.8,0,64.9-29.1,64.9-64.9s-29.1-64.9-64.9-64.9s-64.9,29.1-64.9,64.9
				C118.5-91.9,147.6-62.9,183.4-62.9z"/>
			<circle fill="none" stroke="#CC4133" stroke-width="17" stroke-miterlimit="10" cx="183.4" cy="-127.8" r="16.2"/>
		</g>
	</g>
	<g id="Eyes_18_">
		<g>
			<path fill="#FFFFFF" d="M333.1-62.9c35.8,0,64.9-29.1,64.9-64.9s-29.1-64.9-64.9-64.9s-64.9,29.1-64.9,64.9
				S297.3-62.9,333.1-62.9z"/>
			<circle fill="none" stroke="#CC4133" stroke-width="17" stroke-miterlimit="10" cx="333.1" cy="-127.8" r="16.2"/>
		</g>
	</g>
	<polygon fill="#D85261" points="334,-47.5 334,-47.5 326.8,-47.5 319.5,-47.5 319.5,-47.6 312.2,-47.6 312.2,-47.5 305,-47.5
		305,-47.6 297.7,-47.6 297.7,-47.5 290.4,-47.5 290.4,-47.5 283.2,-47.5 283.2,-47.5 275.9,-47.5 275.9,-47.5 268.6,-47.5
		268.6,-47.5 261.3,-47.5 261.3,-47.5 254,-47.5 254,-47.5 246.8,-47.5 246.8,-47.5 239.5,-47.5 239.5,-47.5 232.2,-47.5
		232.2,-47.5 225,-47.5 225,-47.5 217.7,-47.5 217.7,-47.5 210.4,-47.6 210.4,-47.5 203.2,-47.5 203.2,-47.6 195.9,-47.6
		195.9,-47.5 188.6,-47.5 188.6,-47.6 181.3,-47.6 181.3,-47.5 181.3,-47.5 188.6,-41.4 195.9,-35.2 203.2,-29 210.4,-22.9
		217.7,-16.6 225,-10.5 227.4,-8.4 232.2,-4.3 232.2,-4.3 232.2,-4.3 239.5,1.8 239.5,1.8 243.3,5.1 246.8,8 254,14.2 254,14.2
		258.2,17.8 261.3,15 261.3,15 268.6,8.8 268.6,8.8 268.6,8.8 272.6,5.4 275.9,2.5 283.2,-3.7 283.2,-3.7 283.2,-3.7 290.4,-10
		290.4,-10 297.7,-16.3 305,-22.5 312.2,-28.8 312.2,-28.8 312.2,-28.8 319.5,-35 326.8,-41.3 330.4,-44.4 	"/>
</g>
<g id="robotBtnB">
	<circle fill="#24425A" cx="377.5" cy="547.4" r="43.4"/>
</g>
<g id="robotBtnA">
	<circle fill="#24425A" cx="278.2" cy="467.9" r="43.4"/>
</g>
<g id="robotHeart">
	<polygon fill="#24425A" points="323.3,213.6 348.1,238.3 348.1,269.4 298.5,319 298.5,238.3 317.1,219.8 	"/>
	<polygon fill="#24425A" points="273.6,213.6 298.5,226 298.5,319 298.5,319 248.9,269.4 248.9,238.3 	"/>
</g>
</svg>
